<svg width="72" height="72" viewBox="0 0 72 72" fill="none" xmlns="http://www.w3.org/2000/svg">
<g>
<path d="M54.77 36C59.78 30.67 64.69 25.21 69.51 19.55C71.51 17.19 71.49 13.73 69.5 11.36C66.81 8.16 63.85 5.19 60.64 2.5C58.27 0.510002 54.8 0.480002 52.45 2.49C46.79 7.31 41.33 12.22 36 17.23C30.67 12.22 25.21 7.31 19.55 2.49C17.19 0.490002 13.73 0.510002 11.36 2.5C8.16003 5.19 5.19003 8.15 2.50003 11.36C0.510033 13.73 0.480033 17.2 2.49003 19.55C7.31003 25.21 12.22 30.67 17.23 36C12.22 41.33 7.31003 46.79 2.49003 52.45C0.490033 54.81 0.510033 58.27 2.50003 60.64C5.19003 63.84 8.15003 66.81 11.36 69.5C13.73 71.49 17.2 71.52 19.55 69.51C25.21 64.69 30.67 59.78 36 54.77C41.33 59.78 46.79 64.69 52.45 69.51C54.81 71.51 58.27 71.49 60.64 69.5C63.84 66.81 66.81 63.85 69.5 60.64C71.49 58.27 71.52 54.8 69.51 52.45C64.69 46.79 59.78 41.33 54.77 36Z" fill="#FB7369"/>
<path d="M29.83 44.06C29.55 44.06 29.27 43.94 29.08 43.72C28.72 43.3 28.76 42.67 29.17 42.31C30.76 40.92 33.32 40.09 36.03 40.09C38.74 40.09 41.2 40.88 42.81 42.24C43.23 42.6 43.28 43.23 42.93 43.65C42.57 44.07 41.94 44.12 41.52 43.77C40.28 42.72 38.23 42.09 36.03 42.09C33.83 42.09 31.72 42.73 30.49 43.81C30.3 43.98 30.07 44.06 29.83 44.06Z" fill="#4A254B"/>
<path d="M30.09 44.65C29.67 44.65 29.29 44.39 29.14 43.98C29.01 43.6 28.65 43.26 28.34 43.09C27.86 42.82 27.69 42.21 27.96 41.73C28.23 41.25 28.84 41.08 29.32 41.35C30.11 41.8 30.75 42.54 31.02 43.33C31.2 43.85 30.92 44.42 30.4 44.6C30.29 44.64 30.18 44.66 30.07 44.66L30.09 44.65Z" fill="#4A254B"/>
<path d="M41.91 44.65C41.8 44.65 41.69 44.63 41.58 44.59C41.06 44.41 40.78 43.84 40.96 43.32C41.23 42.53 41.87 41.79 42.66 41.34C43.14 41.07 43.75 41.24 44.02 41.72C44.29 42.2 44.12 42.81 43.64 43.08C43.34 43.25 42.97 43.59 42.84 43.97C42.7 44.38 42.31 44.64 41.89 44.64L41.91 44.65Z" fill="#4A254B"/>
<path d="M28 38C30.7614 38 33 35.7614 33 33C33 30.2386 30.7614 28 28 28C25.2386 28 23 30.2386 23 33C23 35.7614 25.2386 38 28 38Z" fill="white"/>
<path d="M28 35.5C29.3807 35.5 30.5 34.3807 30.5 33C30.5 31.6193 29.3807 30.5 28 30.5C26.6193 30.5 25.5 31.6193 25.5 33C25.5 34.3807 26.6193 35.5 28 35.5Z" fill="#4A254B"/>
<path d="M44 38C46.7614 38 49 35.7614 49 33C49 30.2386 46.7614 28 44 28C41.2386 28 39 30.2386 39 33C39 35.7614 41.2386 38 44 38Z" fill="white"/>
<path d="M44 35.5C45.3807 35.5 46.5 34.3807 46.5 33C46.5 31.6193 45.3807 30.5 44 30.5C42.6193 30.5 41.5 31.6193 41.5 33C41.5 34.3807 42.6193 35.5 44 35.5Z" fill="#4A254B"/>
</g>
</svg>
