<svg width="35" height="25" viewBox="0 0 35 25" fill="none" xmlns="http://www.w3.org/2000/svg">
<g>
<path d="M0.690918 1.05618H34.341V8.76819H0.690918V1.05618Z" fill="#FF9800"/>
<path d="M0.690918 8.76819H34.341V16.4802H0.690918V8.76819Z" fill="#F5F5F5"/>
<path d="M0.690918 16.4802H34.341V24.1922H0.690918V16.4802Z" fill="#388E3C"/>
<path d="M17.516 9.60803C15.8641 9.60803 14.5249 10.9584 14.5249 12.6242C14.5249 14.29 15.8641 15.6404 17.516 15.6404C19.1679 15.6404 20.507 14.29 20.507 12.6242C20.507 10.9584 19.1679 9.60803 17.516 9.60803ZM17.516 15.2632C16.0705 15.2632 14.8989 14.0818 14.8989 12.6242C14.8989 11.1666 16.0705 9.98515 17.516 9.98515C18.9614 9.98515 20.133 11.1666 20.133 12.6242C20.133 14.0818 18.9614 15.2632 17.516 15.2632Z" fill="#000088"/>
<path d="M17.5159 12.0967C17.4472 12.0967 17.3792 12.1103 17.3158 12.1368C17.2523 12.1633 17.1946 12.2022 17.146 12.2512C17.0975 12.3002 17.0589 12.3583 17.0326 12.4223C17.0064 12.4863 16.9928 12.5549 16.9928 12.6242C16.9928 12.6935 17.0064 12.762 17.0326 12.826C17.0589 12.89 17.0975 12.9482 17.146 12.9972C17.1946 13.0462 17.2523 13.085 17.3158 13.1115C17.3792 13.138 17.4472 13.1517 17.5159 13.1517C17.5846 13.1517 17.6527 13.138 17.7161 13.1115C17.7796 13.085 17.8373 13.0462 17.8858 12.9972C17.9344 12.9482 17.9729 12.89 17.9992 12.826C18.0255 12.762 18.039 12.6935 18.039 12.6242C18.039 12.5549 18.0255 12.4863 17.9992 12.4223C17.9729 12.3583 17.9344 12.3002 17.8858 12.2512C17.8373 12.2022 17.7796 12.1633 17.7161 12.1368C17.6527 12.1103 17.5846 12.0967 17.5159 12.0967Z" fill="#000088"/>
<path d="M19.982 12.9496C19.9774 12.9843 19.9868 13.0194 20.0079 13.0471C20.029 13.0748 20.0602 13.093 20.0946 13.0976C20.129 13.1021 20.1637 13.0927 20.1912 13.0714C20.2188 13.0501 20.2368 13.0187 20.2413 12.984C20.2458 12.9493 20.2365 12.9143 20.2154 12.8865C20.1943 12.8588 20.1631 12.8406 20.1287 12.8361C20.0943 12.8315 20.0595 12.8409 20.032 12.8622C20.0045 12.8835 19.9865 12.9149 19.982 12.9496Z" fill="#000088"/>
<path d="M17.5159 15.2633L17.6054 13.68L17.5159 12.9258L17.4264 13.68L17.5159 15.2633Z" fill="#000088"/>
<path d="M19.8133 13.584C19.8 13.6163 19.8 13.6526 19.8133 13.6849C19.8266 13.7173 19.8521 13.7429 19.8841 13.7563C19.9161 13.7697 19.9521 13.7697 19.9842 13.7563C20.0162 13.7429 20.0417 13.7172 20.055 13.6849C20.0682 13.6526 20.0682 13.6163 20.055 13.584C20.0417 13.5517 20.0162 13.526 19.9842 13.5126C19.9521 13.4992 19.9161 13.4992 19.8841 13.5126C19.8521 13.526 19.8266 13.5517 19.8133 13.584Z" fill="#000088"/>
<path d="M16.8383 15.1738L17.3316 13.6676L17.4387 12.9157L17.1588 13.6206L16.8383 15.1738Z" fill="#000088"/>
<path d="M19.4888 14.1494C19.4784 14.1632 19.4707 14.1789 19.4663 14.1956C19.4618 14.2123 19.4607 14.2298 19.4629 14.2469C19.4652 14.2641 19.4707 14.2807 19.4793 14.2957C19.4879 14.3107 19.4993 14.3238 19.513 14.3343C19.5266 14.3449 19.5421 14.3526 19.5587 14.3571C19.5753 14.3616 19.5926 14.3627 19.6096 14.3605C19.6267 14.3582 19.6431 14.3526 19.658 14.3439C19.6728 14.3353 19.6859 14.3237 19.6963 14.31C19.7068 14.2963 19.7144 14.2806 19.7189 14.2638C19.7233 14.2471 19.7245 14.2297 19.7222 14.2125C19.72 14.1953 19.7144 14.1788 19.7058 14.1638C19.6972 14.1488 19.6858 14.1356 19.6722 14.1251C19.6586 14.1145 19.643 14.1068 19.6264 14.1023C19.6098 14.0979 19.5925 14.0967 19.5755 14.099C19.5585 14.1012 19.5421 14.1068 19.5272 14.1155C19.5123 14.1242 19.4993 14.1357 19.4888 14.1494Z" fill="#000088"/>
<path d="M16.2074 14.9101L17.0701 13.5836L17.366 12.8857L16.914 13.4934L16.2074 14.9101Z" fill="#000088"/>
<path d="M19.03 14.6121C19.0024 14.6334 18.9844 14.6648 18.9799 14.6995C18.9754 14.7342 18.9847 14.7693 19.0058 14.797C19.0269 14.8248 19.0581 14.8429 19.0925 14.8475C19.1269 14.852 19.1617 14.8426 19.1892 14.8213C19.2167 14.8001 19.2347 14.7686 19.2392 14.7339C19.2438 14.6993 19.2344 14.6642 19.2133 14.6364C19.1922 14.6087 19.161 14.5905 19.1266 14.586C19.0923 14.5814 19.0575 14.5908 19.03 14.6121Z" fill="#000088"/>
<path d="M15.6652 14.4905L16.8391 13.4347L17.3041 12.8378L16.7121 13.3067L15.6652 14.4905Z" fill="#000088"/>
<path d="M18.4684 14.9395C18.4363 14.9529 18.4109 14.9786 18.3976 15.0109C18.3843 15.0432 18.3843 15.0795 18.3976 15.1118C18.4109 15.1441 18.4363 15.1698 18.4684 15.1832C18.5004 15.1966 18.5364 15.1966 18.5685 15.1832C18.6005 15.1698 18.626 15.1441 18.6393 15.1118C18.6525 15.0795 18.6525 15.0432 18.6393 15.0109C18.626 14.9786 18.6005 14.9529 18.5685 14.9395C18.5364 14.9261 18.5004 14.9261 18.4684 14.9395Z" fill="#000088"/>
<path d="M15.2491 13.9437L16.654 13.2304L17.2567 12.7746L16.5646 13.0731L15.2491 13.9437Z" fill="#000088"/>
<path d="M17.841 15.1098C17.8066 15.1144 17.7754 15.1325 17.7543 15.1603C17.7332 15.188 17.7239 15.2231 17.7284 15.2578C17.7329 15.2924 17.7509 15.3239 17.7784 15.3452C17.806 15.3665 17.8407 15.3759 17.8751 15.3713C17.9095 15.3667 17.9407 15.3486 17.9618 15.3208C17.9829 15.2931 17.9922 15.258 17.9877 15.2233C17.9832 15.1887 17.9652 15.1572 17.9377 15.1359C17.9102 15.1146 17.8754 15.1052 17.841 15.1098Z" fill="#000088"/>
<path d="M14.9876 13.3075L16.5279 12.9851L17.2269 12.7029L16.4812 12.8108L14.9876 13.3075Z" fill="#000088"/>
<path d="M17.045 15.2259C17.0405 15.2605 17.0498 15.2956 17.0709 15.3233C17.092 15.3511 17.1232 15.3692 17.1576 15.3738C17.192 15.3784 17.2267 15.369 17.2543 15.3477C17.2818 15.3264 17.2998 15.2949 17.3043 15.2603C17.3088 15.2256 17.2995 15.1905 17.2784 15.1628C17.2573 15.135 17.2261 15.1169 17.1917 15.1123C17.1573 15.1077 17.1226 15.1171 17.095 15.1384C17.0675 15.1597 17.0495 15.1912 17.045 15.2259Z" fill="#000088"/>
<path d="M14.8989 12.6242L16.469 12.7144L17.2169 12.6242L16.469 12.534L14.8989 12.6242Z" fill="#000088"/>
<path d="M16.3944 15.0125C16.3812 15.0448 16.3812 15.0811 16.3944 15.1134C16.4077 15.1457 16.4332 15.1714 16.4652 15.1848C16.4973 15.1982 16.5333 15.1982 16.5653 15.1848C16.5973 15.1714 16.6228 15.1457 16.6361 15.1134C16.6494 15.0811 16.6494 15.0448 16.6361 15.0125C16.6228 14.9802 16.5973 14.9545 16.5653 14.9411C16.5333 14.9277 16.4973 14.9277 16.4652 14.9411C16.4332 14.9545 16.4077 14.9802 16.3944 15.0125Z" fill="#000088"/>
<path d="M14.9876 11.9409L16.4812 12.4383L17.2269 12.5463L16.5279 12.2641L14.9876 11.9409Z" fill="#000088"/>
<path d="M15.8198 14.6359C15.7987 14.6636 15.7894 14.6987 15.7939 14.7334C15.7984 14.7681 15.8164 14.7995 15.8439 14.8208C15.8714 14.8421 15.9062 14.8515 15.9406 14.8469C15.975 14.8423 16.0062 14.8242 16.0273 14.7964C16.0484 14.7687 16.0577 14.7336 16.0532 14.699C16.0487 14.6643 16.0307 14.6328 16.0031 14.6115C15.9756 14.5903 15.9409 14.5809 15.9065 14.5854C15.8721 14.59 15.8409 14.6081 15.8198 14.6359Z" fill="#000088"/>
<path d="M15.2491 11.3047L16.5646 12.1746L17.2567 12.4731L16.654 12.018L15.2491 11.3047Z" fill="#000088"/>
<path d="M15.3603 14.1253C15.3466 14.1359 15.3352 14.149 15.3266 14.164C15.318 14.179 15.3124 14.1956 15.3102 14.2128C15.308 14.2299 15.3091 14.2474 15.3135 14.2641C15.318 14.2808 15.3257 14.2965 15.3361 14.3103C15.3466 14.324 15.3596 14.3355 15.3745 14.3442C15.3893 14.3528 15.4058 14.3585 15.4228 14.3607C15.4398 14.363 15.4571 14.3618 15.4737 14.3574C15.4903 14.3529 15.5058 14.3451 15.5195 14.3346C15.5331 14.3241 15.5445 14.3109 15.5531 14.2959C15.5617 14.2809 15.5673 14.2644 15.5695 14.2472C15.5718 14.23 15.5706 14.2126 15.5662 14.1958C15.5617 14.1791 15.5541 14.1634 15.5436 14.1497C15.5332 14.136 15.5201 14.1244 15.5053 14.1158C15.4904 14.1071 15.474 14.1015 15.4569 14.0992C15.4399 14.097 15.4226 14.0981 15.406 14.1026C15.3894 14.1071 15.3739 14.1148 15.3603 14.1253Z" fill="#000088"/>
<path d="M15.6652 10.7579L16.7121 11.9417L17.3041 12.4106L16.8391 11.8137L15.6652 10.7579Z" fill="#000088"/>
<path d="M15.0483 13.5116C15.0163 13.525 14.9908 13.5507 14.9776 13.583C14.9643 13.6153 14.9643 13.6516 14.9776 13.6839C14.9908 13.7162 15.0163 13.7419 15.0483 13.7553C15.0804 13.7687 15.1164 13.7687 15.1484 13.7553C15.1805 13.7419 15.2059 13.7162 15.2192 13.6839C15.2325 13.6516 15.2325 13.6153 15.2192 13.583C15.2059 13.5507 15.1805 13.525 15.1484 13.5116C15.1164 13.4982 15.0804 13.4982 15.0483 13.5116Z" fill="#000088"/>
<path d="M16.2074 10.3383L16.9148 11.755L17.3668 12.3627L17.0708 11.6648L16.2074 10.3383Z" fill="#000088"/>
<path d="M14.9042 12.838C14.8698 12.8425 14.8386 12.8607 14.8175 12.8884C14.7964 12.9162 14.7871 12.9513 14.7916 12.9859C14.7961 13.0206 14.8141 13.0521 14.8416 13.0734C14.8692 13.0946 14.9039 13.104 14.9383 13.0995C14.9727 13.0949 15.0039 13.0768 15.025 13.049C15.0461 13.0213 15.0554 12.9862 15.0509 12.9515C15.0464 12.9168 15.0284 12.8854 15.0009 12.8641C14.9734 12.8428 14.9386 12.8334 14.9042 12.838Z" fill="#000088"/>
<path d="M16.8383 10.0746L17.158 11.6278L17.4379 12.3327L17.3308 11.5808L16.8383 10.0746Z" fill="#000088"/>
<path d="M14.7915 12.2608C14.787 12.2955 14.7963 12.3306 14.8174 12.3583C14.8385 12.3861 14.8697 12.4042 14.9041 12.4088C14.9385 12.4133 14.9732 12.4039 15.0008 12.3827C15.0283 12.3614 15.0463 12.3299 15.0508 12.2952C15.0553 12.2606 15.046 12.2255 15.0249 12.1977C15.0038 12.17 14.9726 12.1518 14.9382 12.1473C14.9038 12.1427 14.869 12.1521 14.8415 12.1734C14.814 12.1947 14.796 12.2261 14.7915 12.2608Z" fill="#000088"/>
<path d="M17.5159 9.98514L17.4264 11.5684L17.5159 12.3226L17.6054 11.5684L17.5159 9.98514Z" fill="#000088"/>
<path d="M14.9769 11.5635C14.9636 11.5958 14.9636 11.6321 14.9769 11.6644C14.9901 11.6967 15.0156 11.7224 15.0476 11.7358C15.0797 11.7491 15.1157 11.7491 15.1477 11.7357C15.1798 11.7224 15.2052 11.6967 15.2185 11.6644C15.2318 11.6321 15.2318 11.5958 15.2185 11.5634C15.2052 11.5311 15.1798 11.5055 15.1477 11.4921C15.1157 11.4787 15.0797 11.4787 15.0476 11.4921C15.0156 11.5055 14.9901 11.5311 14.9769 11.5635Z" fill="#000088"/>
<path d="M18.1935 10.0746L17.7002 11.5808L17.5931 12.3327L17.873 11.6278L18.1935 10.0746Z" fill="#000088"/>
<path d="M15.3358 10.936C15.3253 10.9497 15.3177 10.9654 15.3132 10.9821C15.3088 10.9989 15.3077 11.0163 15.3099 11.0335C15.3121 11.0507 15.3177 11.0672 15.3263 11.0822C15.3349 11.0972 15.3463 11.1104 15.36 11.1209C15.3736 11.1314 15.3891 11.1392 15.4057 11.1436C15.4223 11.1481 15.4396 11.1493 15.4566 11.147C15.4737 11.1447 15.4901 11.1391 15.505 11.1305C15.5198 11.1218 15.5329 11.1103 15.5433 11.0965C15.5538 11.0828 15.5614 11.0671 15.5659 11.0504C15.5703 11.0337 15.5715 11.0162 15.5692 10.999C15.567 10.9819 15.5614 10.9653 15.5528 10.9503C15.5442 10.9353 15.5328 10.9222 15.5192 10.9116C15.5055 10.9011 15.49 10.8934 15.4734 10.8889C15.4568 10.8844 15.4395 10.8833 15.4225 10.8855C15.4055 10.8878 15.389 10.8934 15.3742 10.9021C15.3593 10.9107 15.3463 10.9222 15.3358 10.936Z" fill="#000088"/>
<path d="M18.8245 10.3383L17.9618 11.6648L17.6658 12.3627L18.117 11.755L18.8245 10.3383Z" fill="#000088"/>
<path d="M15.8439 10.4245C15.8164 10.4458 15.7984 10.4772 15.7939 10.5119C15.7894 10.5466 15.7987 10.5817 15.8198 10.6094C15.8409 10.6372 15.8721 10.6553 15.9065 10.6599C15.9409 10.6644 15.9756 10.655 16.0031 10.6338C16.0307 10.6125 16.0487 10.581 16.0532 10.5463C16.0577 10.5117 16.0484 10.4766 16.0273 10.4489C16.0062 10.4211 15.975 10.403 15.9406 10.3984C15.9062 10.3938 15.8714 10.4032 15.8439 10.4245Z" fill="#000088"/>
<path d="M19.3667 10.7579L18.1928 11.8137L17.7278 12.4106L18.3197 11.9417L19.3667 10.7579Z" fill="#000088"/>
<path d="M16.4636 10.0648C16.4477 10.0715 16.4333 10.0812 16.4212 10.0934C16.409 10.1057 16.3994 10.1202 16.3928 10.1362C16.3862 10.1522 16.3829 10.1693 16.3829 10.1867C16.3829 10.204 16.3862 10.2211 16.3928 10.2371C16.3994 10.2531 16.409 10.2677 16.4212 10.2799C16.4333 10.2922 16.4477 10.3019 16.4636 10.3085C16.4795 10.3151 16.4965 10.3185 16.5136 10.3185C16.5308 10.3185 16.5478 10.3151 16.5637 10.3085C16.5796 10.3019 16.594 10.2922 16.6061 10.2799C16.6183 10.2677 16.6279 10.2531 16.6345 10.2371C16.641 10.2211 16.6444 10.204 16.6444 10.1867C16.6444 10.1693 16.641 10.1522 16.6345 10.1362C16.6279 10.1202 16.6183 10.1057 16.6061 10.0934C16.594 10.0812 16.5796 10.0715 16.5637 10.0648C16.5478 10.0582 16.5308 10.0548 16.5136 10.0548C16.4965 10.0548 16.4795 10.0582 16.4636 10.0648Z" fill="#000088"/>
<path d="M19.7827 11.3047L18.3778 12.018L17.7752 12.4731L18.4673 12.1746L19.7827 11.3047Z" fill="#000088"/>
<path d="M17.1573 9.87645C17.1402 9.87871 17.1238 9.88434 17.109 9.893C17.0941 9.90166 17.0811 9.91318 17.0706 9.92693C17.0601 9.94067 17.0525 9.95635 17.048 9.97308C17.0436 9.9898 17.0425 10.0073 17.0447 10.0244C17.0469 10.0416 17.0525 10.0581 17.0611 10.0731C17.0697 10.0881 17.0811 10.1013 17.0948 10.1118C17.1084 10.1224 17.1239 10.1301 17.1405 10.1346C17.1571 10.1391 17.1744 10.1402 17.1914 10.1379C17.2085 10.1357 17.2249 10.1301 17.2398 10.1214C17.2546 10.1127 17.2677 10.1012 17.2781 10.0875C17.2886 10.0737 17.2962 10.058 17.3007 10.0413C17.3051 10.0246 17.3063 10.0071 17.304 9.98997C17.3018 9.9728 17.2962 9.95625 17.2876 9.94125C17.279 9.92625 17.2676 9.91311 17.254 9.90257C17.2403 9.89202 17.2248 9.88429 17.2082 9.87981C17.1916 9.87533 17.1743 9.87419 17.1573 9.87645Z" fill="#000088"/>
<path d="M20.0443 11.9409L18.504 12.2633L17.805 12.5455L18.5507 12.4376L20.0443 11.9409Z" fill="#000088"/>
<path d="M17.728 9.99172C17.7258 10.0089 17.7269 10.0263 17.7314 10.0431C17.7358 10.0598 17.7435 10.0755 17.7539 10.0892C17.7644 10.103 17.7774 10.1145 17.7923 10.1231C17.8072 10.1318 17.8236 10.1374 17.8406 10.1397C17.8577 10.142 17.875 10.1408 17.8915 10.1363C17.9081 10.1318 17.9237 10.1241 17.9373 10.1136C17.9509 10.103 17.9624 10.0899 17.971 10.0749C17.9795 10.0599 17.9851 10.0433 17.9874 10.0262C17.9896 10.009 17.9885 9.99155 17.984 9.97482C17.9796 9.9581 17.9719 9.94241 17.9615 9.92867C17.951 9.91493 17.938 9.9034 17.9231 9.89474C17.9082 9.88608 17.8918 9.88046 17.8748 9.8782C17.8578 9.87594 17.8405 9.87708 17.8239 9.88156C17.8073 9.88604 17.7917 9.89377 17.7781 9.90431C17.7645 9.91486 17.753 9.928 17.7445 9.943C17.7359 9.95799 17.7303 9.97455 17.728 9.99172Z" fill="#000088"/>
<path d="M20.133 12.6242L18.5629 12.534L17.815 12.6242L18.5629 12.7144L20.133 12.6242Z" fill="#000088"/>
<path d="M18.396 10.1338C18.3894 10.1498 18.386 10.1669 18.386 10.1842C18.386 10.2016 18.3894 10.2187 18.396 10.2347C18.4026 10.2507 18.4122 10.2652 18.4243 10.2775C18.4365 10.2897 18.4509 10.2995 18.4668 10.3061C18.4826 10.3127 18.4996 10.3161 18.5168 10.3161C18.534 10.3161 18.551 10.3127 18.5669 10.3061C18.5827 10.2995 18.5971 10.2897 18.6093 10.2775C18.6214 10.2652 18.6311 10.2507 18.6376 10.2347C18.6442 10.2187 18.6476 10.2016 18.6476 10.1842C18.6476 10.1669 18.6442 10.1498 18.6376 10.1338C18.6311 10.1178 18.6214 10.1032 18.6093 10.091C18.5971 10.0787 18.5827 10.069 18.5669 10.0624C18.551 10.0558 18.534 10.0524 18.5168 10.0524C18.4996 10.0524 18.4826 10.0558 18.4668 10.0624C18.4509 10.069 18.4365 10.0787 18.4243 10.091C18.4122 10.1032 18.4026 10.1178 18.396 10.1338Z" fill="#000088"/>
<path d="M20.0443 13.3075L18.5507 12.8101L17.805 12.7021L18.504 12.9843L20.0443 13.3075Z" fill="#000088"/>
<path d="M19.0055 10.4492C18.9844 10.477 18.9751 10.512 18.9796 10.5467C18.9841 10.5814 19.0021 10.6128 19.0297 10.6341C19.0572 10.6554 19.0919 10.6648 19.1263 10.6602C19.1607 10.6557 19.1919 10.6375 19.213 10.6098C19.2341 10.582 19.2434 10.547 19.2389 10.5123C19.2344 10.4776 19.2164 10.4462 19.1889 10.4249C19.1614 10.4036 19.1266 10.3942 19.0922 10.3987C19.0578 10.4033 19.0266 10.4215 19.0055 10.4492Z" fill="#000088"/>
<path d="M19.7827 13.9437L18.4673 13.0738L17.7752 12.7754L18.3778 13.2311L19.7827 13.9437Z" fill="#000088"/>
<path d="M19.5125 10.9127C19.4989 10.9232 19.4874 10.9364 19.4789 10.9514C19.4703 10.9664 19.4647 10.9829 19.4625 11.0001C19.4602 11.0173 19.4614 11.0347 19.4658 11.0515C19.4702 11.0682 19.4779 11.0839 19.4884 11.0976C19.4988 11.1113 19.5119 11.1229 19.5267 11.1315C19.5416 11.1402 19.558 11.1458 19.5751 11.1481C19.5921 11.1503 19.6094 11.1492 19.626 11.1447C19.6426 11.1402 19.6581 11.1325 19.6717 11.1219C19.6854 11.1114 19.6968 11.0982 19.7054 11.0832C19.714 11.0682 19.7195 11.0517 19.7218 11.0345C19.724 11.0173 19.7229 10.9999 19.7184 10.9832C19.714 10.9664 19.7063 10.9508 19.6959 10.937C19.6854 10.9233 19.6724 10.9118 19.6575 10.9031C19.6426 10.8944 19.6262 10.8888 19.6092 10.8866C19.5921 10.8843 19.5748 10.8854 19.5583 10.8899C19.5417 10.8944 19.5261 10.9021 19.5125 10.9127Z" fill="#000088"/>
<path d="M19.3667 14.4905L18.3197 13.3067L17.7278 12.8378L18.1928 13.4347L19.3667 14.4905Z" fill="#000088"/>
<path d="M19.8836 11.4925C19.8516 11.5059 19.8261 11.5316 19.8128 11.5639C19.7996 11.5962 19.7996 11.6325 19.8128 11.6648C19.8261 11.6971 19.8516 11.7228 19.8836 11.7362C19.9156 11.7496 19.9516 11.7496 19.9837 11.7362C20.0157 11.7228 20.0412 11.6971 20.0545 11.6648C20.0677 11.6325 20.0677 11.5962 20.0545 11.5639C20.0412 11.5316 20.0157 11.5059 19.9837 11.4925C19.9517 11.4791 19.9157 11.4791 19.8836 11.4925Z" fill="#000088"/>
<path d="M18.8245 14.9101L18.117 13.4934L17.6658 12.8857L17.9618 13.5836L18.8245 14.9101Z" fill="#000088"/>
<path d="M20.0939 12.1484C20.0595 12.153 20.0284 12.1712 20.0072 12.1989C19.9861 12.2267 19.9768 12.2617 19.9813 12.2964C19.9859 12.3311 20.0039 12.3625 20.0314 12.3838C20.0589 12.4051 20.0937 12.4145 20.1281 12.4099C20.1624 12.4054 20.1936 12.3872 20.2147 12.3595C20.2359 12.3317 20.2452 12.2967 20.2406 12.262C20.2361 12.2273 20.2181 12.1959 20.1906 12.1746C20.1631 12.1533 20.1283 12.1439 20.0939 12.1484Z" fill="#000088"/>
<path d="M18.1935 15.1738L17.8738 13.6206L17.5939 12.9157L17.701 13.6676L18.1935 15.1738Z" fill="#000088"/>
</g>
</svg>
