<svg width="88" height="70" viewBox="0 0 88 70" fill="none" xmlns="http://www.w3.org/2000/svg">
<g>
<path d="M84.37 3.05C80.63 -0.319997 74.86 -0.109997 71.11 3.24L31.26 39.96L16.58 30.44C12.46 27.57 6.77003 27.88 3.27003 31.48C-0.669966 35.53 -0.539967 41.96 3.48003 45.84L24.97 66.57C29 70.45 35.42 70.28 39.23 66.19L85 17C88.68 13.04 88.49 6.77 84.37 3.05Z" fill="#ABD451"/>
<path d="M23.86 55.39C26.6214 55.39 28.86 53.1514 28.86 50.39C28.86 47.6286 26.6214 45.39 23.86 45.39C21.0986 45.39 18.86 47.6286 18.86 50.39C18.86 53.1514 21.0986 55.39 23.86 55.39Z" fill="white"/>
<path d="M23.86 52.39C24.9646 52.39 25.86 51.4946 25.86 50.39C25.86 49.2854 24.9646 48.39 23.86 48.39C22.7554 48.39 21.86 49.2854 21.86 50.39C21.86 51.4946 22.7554 52.39 23.86 52.39Z" fill="#4A254B"/>
<path d="M39.86 55.39C42.6214 55.39 44.86 53.1514 44.86 50.39C44.86 47.6286 42.6214 45.39 39.86 45.39C37.0986 45.39 34.86 47.6286 34.86 50.39C34.86 53.1514 37.0986 55.39 39.86 55.39Z" fill="white"/>
<path d="M39.86 52.39C40.9646 52.39 41.86 51.4946 41.86 50.39C41.86 49.2854 40.9646 48.39 39.86 48.39C38.7554 48.39 37.86 49.2854 37.86 50.39C37.86 51.4946 38.7554 52.39 39.86 52.39Z" fill="#4A254B"/>
<path d="M28.41 56.39C28.1 56.39 27.87 56.67 27.91 56.98C28.21 58.89 29.86 60.36 31.86 60.36C33.86 60.36 35.51 58.89 35.81 56.98C35.86 56.67 35.62 56.39 35.31 56.39H28.41Z" fill="#4A254B"/>
</g>
</svg>
