<svg xmlns="http://www.w3.org/2000/svg" viewBox="0 0 64 64" id="skull"><g><path fill="#78b9eb" d="M46 57v2a1 1 0 0 1-1 1H44a1 1 0 0 1-1 1H21a1 1 0 0 1-1-1H19a1 1 0 0 1-1-1V57a1 1 0 0 1 1-1h3V54a1 1 0 0 1 1-1h2a1 1 0 0 1 1 1v2h3V53a1 1 0 0 1 1-1h4a1 1 0 0 1 1 1v3h3V54a1 1 0 0 1 1-1h2a1 1 0 0 1 1 1v2h3A1 1 0 0 1 46 57zM32 3C18.19 3 7 12.4 7 24c0 6.88 3.94 12.99 10.03 16.82A2.033 2.033 0 0 1 18 42.53V47a2.006 2.006 0 0 0 2 2h2V47a1 1 0 0 1 1-1h2a1 1 0 0 1 1 1v2h3V46a2.006 2.006 0 0 1 2-2h2a2.006 2.006 0 0 1 2 2v3h3V47a1 1 0 0 1 1-1h2a1 1 0 0 1 1 1v2h2a2.006 2.006 0 0 0 2-2V42.53a2.033 2.033 0 0 1 .97-1.71C53.06 36.99 57 30.88 57 24 57 12.4 45.81 3 32 3zM22 33a7 7 0 1 1 7-7A6.995 6.995 0 0 1 22 33zm19 0a5 5 0 1 1 5-5A5 5 0 0 1 41 33z"></path><path fill="#006df0" d="M32,2C17.66,2,6,11.87,6,24c0,6.93,3.92,13.53,10.5,17.67a1.025,1.025,0,0,1,.5.86V47a3.009,3.009,0,0,0,3,3h2a1,1,0,0,0,1-1V47h2v2a1,1,0,0,0,1,1h3a1,1,0,0,0,1-1V46a1,1,0,0,1,1-1h2a1,1,0,0,1,1,1v3a1,1,0,0,0,1,1h3a1,1,0,0,0,1-1V47h2v2a1,1,0,0,0,1,1h2a3.009,3.009,0,0,0,3-3V42.53a1.025,1.025,0,0,1,.5-.86C54.08,37.53,58,30.93,58,24,58,11.87,46.34,2,32,2ZM46.44,39.97A3.024,3.024,0,0,0,45,42.53V47a1,1,0,0,1-1,1H43V47a2.006,2.006,0,0,0-2-2H39a2.006,2.006,0,0,0-2,2v1H36V46a3.009,3.009,0,0,0-3-3H31a3.009,3.009,0,0,0-3,3v2H27V47a2.006,2.006,0,0,0-2-2H23a2.006,2.006,0,0,0-2,2v1H20a1,1,0,0,1-1-1V42.53a3.024,3.024,0,0,0-1.44-2.56C11.49,36.15,8,30.33,8,24,8,12.97,18.77,4,32,4s24,8.97,24,20C56,30.33,52.51,36.15,46.44,39.97Z"></path><path fill="#006df0" d="M22 18a8 8 0 1 0 8 8A8.009 8.009 0 0 0 22 18zm0 14a6 6 0 1 1 6-6A6.006 6.006 0 0 1 22 32zM41 22a6 6 0 1 0 6 6A6.006 6.006 0 0 0 41 22zm0 10a4 4 0 1 1 4-4A4 4 0 0 1 41 32zM45 55H43V54a2.006 2.006 0 0 0-2-2H39a2.006 2.006 0 0 0-2 2v1H36V53a2.006 2.006 0 0 0-2-2H30a2.006 2.006 0 0 0-2 2v2H27V54a2.006 2.006 0 0 0-2-2H23a2.006 2.006 0 0 0-2 2v1H19a2.006 2.006 0 0 0-2 2v2a2.006 2.006 0 0 0 2 2h.27A1.984 1.984 0 0 0 21 62H43a1.984 1.984 0 0 0 1.73-1H45a2.006 2.006 0 0 0 2-2V57A2.006 2.006 0 0 0 45 55zm0 4H44a1 1 0 0 0-1 1H21a1 1 0 0 0-1-1H19V57h3a1 1 0 0 0 1-1V54h2v2a1 1 0 0 0 1 1h3a1 1 0 0 0 1-1V53h4v3a1 1 0 0 0 1 1h3a1 1 0 0 0 1-1V54h2v2a1 1 0 0 0 1 1h3z"></path></g></svg>