<svg xmlns="http://www.w3.org/2000/svg" width="26" height="18" viewBox="0 0 26 18" fill="none">
  <g clip-path="url(#clip0_40_4)">
    <path d="M0.0875244 0.397095H25.1125V6.13239H0.0875244V0.397095Z" fill="#FF9800"/>
    <path d="M0.0875244 6.13232H25.1125V11.8676H0.0875244V6.13232Z" fill="#F5F5F5"/>
    <path d="M0.0875244 11.8677H25.1125V17.603H0.0875244V11.8677Z" fill="#388E3C"/>
    <path d="M12.6 6.75696C11.3715 6.75696 10.3756 7.76121 10.3756 9.00003C10.3756 10.2389 11.3715 11.2431 12.6 11.2431C13.8285 11.2431 14.8244 10.2389 14.8244 9.00003C14.8244 7.76121 13.8285 6.75696 12.6 6.75696ZM12.6 10.9626C11.5251 10.9626 10.6538 10.084 10.6538 9.00003C10.6538 7.91606 11.5251 7.03741 12.6 7.03741C13.675 7.03741 14.5463 7.91606 14.5463 9.00003C14.5463 10.084 13.675 10.9626 12.6 10.9626Z" fill="#000088"/>
    <path d="M12.6 8.60767C12.5489 8.60767 12.4983 8.61781 12.4512 8.63753C12.404 8.65724 12.3611 8.68614 12.3249 8.72257C12.2888 8.75899 12.2602 8.80224 12.2406 8.84984C12.2211 8.89743 12.211 8.94844 12.211 8.99996C12.211 9.05148 12.2211 9.10249 12.2406 9.15008C12.2602 9.19768 12.2888 9.24093 12.3249 9.27735C12.3611 9.31378 12.404 9.34268 12.4512 9.36239C12.4983 9.38211 12.5489 9.39225 12.6 9.39225C12.6511 9.39225 12.7017 9.38211 12.7489 9.36239C12.7961 9.34268 12.839 9.31378 12.8751 9.27735C12.9112 9.24093 12.9399 9.19768 12.9594 9.15008C12.979 9.10249 12.989 9.05148 12.989 8.99996C12.989 8.94844 12.979 8.89743 12.9594 8.84984C12.9399 8.80224 12.9112 8.75899 12.8751 8.72257C12.839 8.68614 12.7961 8.65724 12.7489 8.63753C12.7017 8.61781 12.6511 8.60767 12.6 8.60767Z" fill="#000088"/>
    <path d="M14.434 9.242C14.4306 9.26779 14.4375 9.29387 14.4532 9.3145C14.4689 9.33514 14.4921 9.34864 14.5177 9.35203C14.5433 9.35543 14.5691 9.34844 14.5896 9.3326C14.6101 9.31677 14.6234 9.29338 14.6268 9.26759C14.6302 9.24181 14.6232 9.21572 14.6075 9.19509C14.5918 9.17445 14.5686 9.16096 14.5431 9.15756C14.5175 9.15417 14.4916 9.16116 14.4712 9.17699C14.4507 9.19283 14.4373 9.21621 14.434 9.242Z" fill="#000088"/>
    <path d="M12.6 10.9626L12.6665 9.78515L12.6 9.22424L12.5334 9.78515L12.6 10.9626Z" fill="#000088"/>
    <path d="M14.3086 9.71383C14.2987 9.73787 14.2987 9.76487 14.3086 9.7889C14.3184 9.81293 14.3374 9.83202 14.3612 9.84197C14.385 9.85193 14.4118 9.85193 14.4356 9.84197C14.4595 9.83202 14.4784 9.81293 14.4883 9.7889C14.4981 9.76487 14.4981 9.73787 14.4883 9.71384C14.4784 9.6898 14.4595 9.67071 14.4356 9.66076C14.4118 9.6508 14.385 9.6508 14.3612 9.66076C14.3374 9.67071 14.3184 9.6898 14.3086 9.71383Z" fill="#000088"/>
    <path d="M12.0961 10.8961L12.4629 9.77599L12.5426 9.2168L12.3344 9.741L12.0961 10.8961Z" fill="#000088"/>
    <path d="M14.0672 10.1344C14.0594 10.1446 14.0537 10.1562 14.0504 10.1687C14.0471 10.1811 14.0463 10.1941 14.0479 10.2069C14.0496 10.2196 14.0537 10.2319 14.0601 10.2431C14.0665 10.2542 14.075 10.264 14.0852 10.2719C14.0953 10.2797 14.1069 10.2855 14.1192 10.2888C14.1315 10.2921 14.1444 10.293 14.1571 10.2913C14.1697 10.2896 14.1819 10.2854 14.193 10.279C14.204 10.2725 14.2137 10.264 14.2215 10.2538C14.2293 10.2435 14.235 10.2319 14.2383 10.2194C14.2416 10.207 14.2425 10.194 14.2408 10.1813C14.2391 10.1685 14.235 10.1562 14.2286 10.145C14.2222 10.1339 14.2137 10.1241 14.2036 10.1162C14.1934 10.1084 14.1819 10.1027 14.1695 10.0993C14.1572 10.096 14.1443 10.0951 14.1317 10.0968C14.119 10.0985 14.1068 10.1027 14.0957 10.1091C14.0847 10.1156 14.075 10.1241 14.0672 10.1344Z" fill="#000088"/>
    <path d="M11.6269 10.7L12.2684 9.7135L12.4885 9.19446L12.1524 9.6464L11.6269 10.7Z" fill="#000088"/>
    <path d="M13.726 10.4784C13.7055 10.4942 13.6921 10.5176 13.6887 10.5434C13.6854 10.5692 13.6923 10.5953 13.708 10.6159C13.7237 10.6365 13.7469 10.65 13.7725 10.6534C13.798 10.6568 13.8239 10.6498 13.8444 10.634C13.8648 10.6182 13.8782 10.5948 13.8816 10.569C13.885 10.5432 13.878 10.5171 13.8623 10.4965C13.8466 10.4759 13.8234 10.4624 13.7979 10.459C13.7723 10.4556 13.7464 10.4625 13.726 10.4784Z" fill="#000088"/>
    <path d="M11.2236 10.388L12.0967 9.60285L12.4425 9.15894L12.0023 9.50764L11.2236 10.388Z" fill="#000088"/>
    <path d="M13.3083 10.7219C13.2845 10.7318 13.2656 10.7509 13.2557 10.7749C13.2458 10.799 13.2458 10.826 13.2557 10.85C13.2656 10.874 13.2845 10.8931 13.3083 10.9031C13.3322 10.913 13.3589 10.913 13.3828 10.9031C13.4066 10.8931 13.4255 10.874 13.4354 10.85C13.4453 10.826 13.4453 10.799 13.4354 10.7749C13.4255 10.7509 13.4066 10.7318 13.3828 10.7219C13.3589 10.7119 13.3322 10.7119 13.3083 10.7219Z" fill="#000088"/>
    <path d="M10.9142 9.98129L11.959 9.45077L12.4072 9.11182L11.8925 9.33377L10.9142 9.98129Z" fill="#000088"/>
    <path d="M12.8418 10.8485C12.8162 10.8519 12.793 10.8654 12.7773 10.8861C12.7616 10.9067 12.7547 10.9328 12.758 10.9586C12.7614 10.9844 12.7748 11.0077 12.7952 11.0236C12.8157 11.0394 12.8416 11.0464 12.8671 11.043C12.8927 11.0396 12.9159 11.0261 12.9316 11.0055C12.9473 10.9848 12.9542 10.9588 12.9509 10.933C12.9475 10.9072 12.9341 10.8838 12.9137 10.868C12.8932 10.8521 12.8673 10.8451 12.8418 10.8485Z" fill="#000088"/>
    <path d="M10.7197 9.50812L11.8652 9.26838L12.385 9.05847L11.8305 9.13877L10.7197 9.50812Z" fill="#000088"/>
    <path d="M12.2498 10.9349C12.2464 10.9607 12.2533 10.9867 12.2691 11.0074C12.2848 11.028 12.3079 11.0415 12.3335 11.0449C12.3591 11.0483 12.385 11.0413 12.4054 11.0255C12.4259 11.0096 12.4393 10.9863 12.4426 10.9605C12.446 10.9347 12.4391 10.9086 12.4234 10.888C12.4077 10.8673 12.3845 10.8538 12.3589 10.8504C12.3333 10.847 12.3075 10.854 12.287 10.8699C12.2665 10.8857 12.2532 10.9091 12.2498 10.9349Z" fill="#000088"/>
    <path d="M10.6537 8.99996L11.8214 9.06707L12.3776 8.99996L11.8214 8.93286L10.6537 8.99996Z" fill="#000088"/>
    <path d="M11.766 10.7761C11.7561 10.8001 11.7561 10.8271 11.766 10.8512C11.7758 10.8752 11.7948 10.8943 11.8186 10.9042C11.8424 10.9142 11.8692 10.9142 11.893 10.9042C11.9169 10.8943 11.9358 10.8752 11.9457 10.8512C11.9556 10.8271 11.9556 10.8001 11.9457 10.7761C11.9358 10.7521 11.9169 10.733 11.8931 10.723C11.8692 10.7131 11.8424 10.7131 11.8186 10.723C11.7948 10.733 11.7758 10.7521 11.766 10.7761Z" fill="#000088"/>
    <path d="M10.7197 8.49182L11.8305 8.86175L12.385 8.94204L11.8652 8.73213L10.7197 8.49182Z" fill="#000088"/>
    <path d="M11.3386 10.496C11.3229 10.5167 11.316 10.5428 11.3193 10.5686C11.3227 10.5943 11.3361 10.6177 11.3565 10.6336C11.377 10.6494 11.4029 10.6564 11.4284 10.653C11.454 10.6496 11.4772 10.6361 11.4929 10.6155C11.5086 10.5948 11.5155 10.5687 11.5122 10.5429C11.5088 10.5172 11.4954 10.4938 11.475 10.4779C11.4545 10.4621 11.4286 10.4551 11.4031 10.4585C11.3775 10.4619 11.3543 10.4754 11.3386 10.496Z" fill="#000088"/>
    <path d="M10.9142 8.01868L11.8925 8.66562L12.4072 8.88757L11.959 8.54919L10.9142 8.01868Z" fill="#000088"/>
    <path d="M10.9969 10.1164C10.9867 10.1243 10.9782 10.1341 10.9718 10.1452C10.9655 10.1564 10.9613 10.1687 10.9596 10.1814C10.958 10.1942 10.9588 10.2072 10.9621 10.2196C10.9654 10.2321 10.9711 10.2437 10.9789 10.254C10.9867 10.2642 10.9964 10.2727 11.0074 10.2792C11.0185 10.2856 11.0307 10.2898 11.0434 10.2915C11.056 10.2932 11.0689 10.2923 11.0812 10.289C11.0936 10.2856 11.1051 10.2799 11.1153 10.2721C11.1254 10.2642 11.1339 10.2544 11.1403 10.2433C11.1467 10.2321 11.1508 10.2198 11.1525 10.2071C11.1542 10.1943 11.1533 10.1813 11.15 10.1689C11.1467 10.1564 11.141 10.1448 11.1332 10.1345C11.1255 10.1243 11.1158 10.1158 11.1047 10.1093C11.0936 10.1029 11.0814 10.0987 11.0688 10.097C11.0561 10.0953 11.0432 10.0962 11.0309 10.0995C11.0186 10.1029 11.007 10.1086 10.9969 10.1164Z" fill="#000088"/>
    <path d="M11.2236 7.61206L12.0023 8.49243L12.4425 8.84113L12.0967 8.39722L11.2236 7.61206Z" fill="#000088"/>
    <path d="M10.7649 9.65998C10.7411 9.66993 10.7221 9.68902 10.7123 9.71306C10.7024 9.73709 10.7024 9.76409 10.7123 9.78812C10.7221 9.81215 10.7411 9.83124 10.7649 9.8412C10.7887 9.85115 10.8155 9.85115 10.8393 9.8412C10.8632 9.83124 10.8821 9.81215 10.892 9.78812C10.9018 9.76409 10.9018 9.73709 10.892 9.71306C10.8821 9.68902 10.8632 9.66993 10.8393 9.65998C10.8155 9.65002 10.7887 9.65002 10.7649 9.65998Z" fill="#000088"/>
    <path d="M11.6269 7.30005L12.153 8.35362L12.4891 8.80556L12.269 8.28652L11.6269 7.30005Z" fill="#000088"/>
    <path d="M10.6577 9.15895C10.6321 9.16235 10.6089 9.17585 10.5932 9.19648C10.5775 9.21712 10.5706 9.2432 10.574 9.26899C10.5773 9.29478 10.5907 9.31816 10.6112 9.33399C10.6317 9.34983 10.6575 9.35682 10.6831 9.35342C10.7087 9.35003 10.7319 9.33653 10.7476 9.31589C10.7633 9.29526 10.7702 9.26918 10.7668 9.24339C10.7635 9.2176 10.7501 9.19422 10.7296 9.17838C10.7091 9.16255 10.6833 9.15556 10.6577 9.15895Z" fill="#000088"/>
    <path d="M12.0961 7.104L12.3338 8.25909L12.542 8.7833L12.4624 8.22411L12.0961 7.104Z" fill="#000088"/>
    <path d="M10.5739 8.72979C10.5705 8.75558 10.5774 8.78166 10.5931 8.8023C10.6089 8.82293 10.632 8.83643 10.6576 8.83982C10.6832 8.84322 10.709 8.83623 10.7295 8.8204C10.75 8.80456 10.7634 8.78118 10.7667 8.75539C10.7701 8.7296 10.7632 8.70352 10.7475 8.68288C10.7318 8.66225 10.7086 8.64875 10.683 8.64535C10.6574 8.64196 10.6316 8.64895 10.6111 8.66479C10.5906 8.68062 10.5772 8.704 10.5739 8.72979Z" fill="#000088"/>
    <path d="M12.6 7.03735L12.5334 8.21481L12.6 8.77572L12.6665 8.21481L12.6 7.03735Z" fill="#000088"/>
    <path d="M10.7117 8.21115C10.7019 8.23518 10.7019 8.26218 10.7117 8.28621C10.7216 8.31024 10.7406 8.32933 10.7644 8.33928C10.7882 8.34923 10.815 8.34923 10.8388 8.33927C10.8627 8.32932 10.8816 8.31022 10.8915 8.28619C10.9013 8.26216 10.9013 8.23516 10.8914 8.21113C10.8816 8.1871 10.8626 8.16801 10.8388 8.15806C10.815 8.14811 10.7882 8.14811 10.7644 8.15806C10.7405 8.16802 10.7216 8.18712 10.7117 8.21115Z" fill="#000088"/>
    <path d="M13.1039 7.104L12.7371 8.22411L12.6574 8.7833L12.8656 8.25909L13.1039 7.104Z" fill="#000088"/>
    <path d="M10.9787 7.74458C10.9709 7.7548 10.9652 7.76646 10.9619 7.7789C10.9586 7.79134 10.9577 7.80431 10.9594 7.81708C10.9611 7.82985 10.9652 7.84216 10.9716 7.85332C10.978 7.86447 10.9865 7.87425 10.9966 7.88209C11.0068 7.88993 11.0183 7.89568 11.0307 7.89901C11.043 7.90234 11.0559 7.90319 11.0685 7.90151C11.0812 7.89983 11.0934 7.89565 11.1045 7.88921C11.1155 7.88277 11.1252 7.87419 11.133 7.86397C11.1408 7.85375 11.1465 7.84209 11.1498 7.82965C11.1531 7.81721 11.1539 7.80424 11.1523 7.79147C11.1506 7.7787 11.1464 7.76639 11.1401 7.75523C11.1337 7.74408 11.1252 7.7343 11.115 7.72646C11.1049 7.71862 11.0933 7.71287 11.081 7.70954C11.0687 7.70621 11.0558 7.70536 11.0431 7.70704C11.0305 7.70872 11.0183 7.7129 11.0072 7.71934C10.9961 7.72578 10.9864 7.73436 10.9787 7.74458Z" fill="#000088"/>
    <path d="M13.5731 7.30005L12.9316 8.28652L12.7115 8.80556L13.047 8.35362L13.5731 7.30005Z" fill="#000088"/>
    <path d="M11.3565 7.36412C11.3361 7.37996 11.3227 7.40334 11.3193 7.42913C11.316 7.45492 11.3229 7.481 11.3386 7.50163C11.3543 7.52227 11.3775 7.53577 11.4031 7.53917C11.4286 7.54256 11.4545 7.53557 11.475 7.51974C11.4954 7.5039 11.5088 7.48052 11.5122 7.45473C11.5155 7.42894 11.5086 7.40286 11.4929 7.38223C11.4772 7.36159 11.454 7.34809 11.4284 7.3447C11.4029 7.3413 11.377 7.34829 11.3565 7.36412Z" fill="#000088"/>
    <path d="M13.9764 7.61206L13.1034 8.39722L12.7576 8.84113L13.1978 8.49243L13.9764 7.61206Z" fill="#000088"/>
    <path d="M11.8174 7.09662C11.8056 7.10155 11.7949 7.10878 11.7858 7.11788C11.7768 7.12699 11.7696 7.1378 11.7648 7.1497C11.7599 7.1616 11.7574 7.17435 11.7574 7.18723C11.7574 7.20011 11.7599 7.21286 11.7648 7.22476C11.7696 7.23666 11.7768 7.24747 11.7858 7.25658C11.7949 7.26569 11.8056 7.27291 11.8174 7.27784C11.8292 7.28277 11.8418 7.28531 11.8546 7.28531C11.8674 7.28531 11.88 7.28277 11.8918 7.27784C11.9036 7.27291 11.9144 7.26569 11.9234 7.25658C11.9324 7.24747 11.9396 7.23666 11.9445 7.22476C11.9494 7.21286 11.9519 7.20011 11.9519 7.18723C11.9519 7.17435 11.9494 7.1616 11.9445 7.1497C11.9396 7.1378 11.9324 7.12699 11.9234 7.11788C11.9144 7.10878 11.9036 7.10155 11.8918 7.09662C11.88 7.0917 11.8674 7.08916 11.8546 7.08916C11.8418 7.08916 11.8292 7.0917 11.8174 7.09662Z" fill="#000088"/>
    <path d="M14.2858 8.01868L13.241 8.54919L12.7928 8.88757L13.3075 8.66562L14.2858 8.01868Z" fill="#000088"/>
    <path d="M12.3333 6.95655C12.3206 6.95823 12.3084 6.96241 12.2974 6.96885C12.2863 6.97529 12.2766 6.98387 12.2688 6.99409C12.2611 7.00431 12.2554 7.01597 12.2521 7.02841C12.2488 7.04085 12.2479 7.05382 12.2496 7.06659C12.2512 7.07936 12.2554 7.09168 12.2618 7.10283C12.2682 7.11398 12.2767 7.12376 12.2868 7.1316C12.2969 7.13943 12.3085 7.14519 12.3208 7.14852C12.3332 7.15185 12.346 7.1527 12.3587 7.15102C12.3714 7.14933 12.3836 7.14515 12.3946 7.13871C12.4057 7.13227 12.4154 7.1237 12.4232 7.11348C12.4309 7.10326 12.4366 7.0916 12.4399 7.07916C12.4433 7.06672 12.4441 7.05374 12.4424 7.04097C12.4408 7.02821 12.4366 7.01589 12.4302 7.00474C12.4238 6.99359 12.4153 6.98381 12.4052 6.97597C12.3951 6.96813 12.3835 6.96238 12.3712 6.95905C12.3588 6.95572 12.346 6.95487 12.3333 6.95655Z" fill="#000088"/>
    <path d="M14.4803 8.49182L13.3348 8.73156L12.815 8.94147L13.3695 8.86117L14.4803 8.49182Z" fill="#000088"/>
    <path d="M12.7578 7.04229C12.7561 7.05506 12.7569 7.06804 12.7602 7.08048C12.7635 7.09292 12.7692 7.10458 12.777 7.1148C12.7848 7.12502 12.7945 7.13359 12.8055 7.14003C12.8166 7.14647 12.8288 7.15065 12.8415 7.15234C12.8541 7.15402 12.867 7.15317 12.8793 7.14984C12.8917 7.1465 12.9032 7.14075 12.9134 7.13291C12.9235 7.12508 12.932 7.1153 12.9384 7.10415C12.9448 7.09299 12.9489 7.08068 12.9506 7.06791C12.9523 7.05514 12.9514 7.04217 12.9481 7.02973C12.9448 7.01729 12.9391 7.00562 12.9313 6.99541C12.9236 6.98519 12.9139 6.97661 12.9028 6.97017C12.8918 6.96373 12.8795 6.95955 12.8669 6.95787C12.8542 6.95619 12.8414 6.95704 12.829 6.96037C12.8167 6.9637 12.8051 6.96945 12.795 6.97729C12.7848 6.98513 12.7763 6.9949 12.77 7.00606C12.7636 7.01721 12.7594 7.02952 12.7578 7.04229Z" fill="#000088"/>
    <path d="M14.5463 8.99996L13.3787 8.93286L12.8224 8.99996L13.3787 9.06707L14.5463 8.99996Z" fill="#000088"/>
    <path d="M13.2545 7.14792C13.2496 7.15982 13.2471 7.17257 13.2471 7.18545C13.2471 7.19833 13.2496 7.21108 13.2545 7.22298C13.2594 7.23488 13.2666 7.24569 13.2756 7.2548C13.2846 7.2639 13.2953 7.27113 13.3071 7.27606C13.3189 7.28099 13.3316 7.28352 13.3444 7.28352C13.3571 7.28352 13.3698 7.28099 13.3816 7.27606C13.3934 7.27113 13.4041 7.2639 13.4131 7.2548C13.4222 7.24569 13.4293 7.23488 13.4342 7.22298C13.4391 7.21108 13.4416 7.19833 13.4416 7.18545C13.4416 7.17257 13.4391 7.15982 13.4342 7.14792C13.4293 7.13602 13.4222 7.12521 13.4131 7.1161C13.4041 7.10699 13.3934 7.09977 13.3816 7.09484C13.3698 7.08991 13.3571 7.08738 13.3444 7.08738C13.3316 7.08738 13.3189 7.08991 13.3071 7.09484C13.2953 7.09977 13.2846 7.10699 13.2756 7.1161C13.2666 7.12521 13.2594 7.13602 13.2545 7.14792Z" fill="#000088"/>
    <path d="M14.4803 9.5082L13.3695 9.13828L12.815 9.05798L13.3348 9.26789L14.4803 9.5082Z" fill="#000088"/>
    <path d="M13.7078 7.38252C13.6921 7.40316 13.6851 7.42924 13.6885 7.45503C13.6919 7.48081 13.7053 7.5042 13.7257 7.52003C13.7462 7.53586 13.772 7.54285 13.7976 7.53946C13.8232 7.53606 13.8464 7.52256 13.8621 7.50193C13.8778 7.48129 13.8847 7.45521 13.8813 7.42942C13.878 7.40363 13.8646 7.38025 13.8441 7.36442C13.8237 7.34858 13.7978 7.34159 13.7722 7.34499C13.7467 7.34838 13.7235 7.36188 13.7078 7.38252Z" fill="#000088"/>
    <path d="M14.2858 9.98132L13.3075 9.33438L12.7928 9.11243L13.241 9.45138L14.2858 9.98132Z" fill="#000088"/>
    <path d="M14.0848 7.72716C14.0747 7.735 14.0662 7.74477 14.0598 7.75593C14.0534 7.76708 14.0493 7.7794 14.0476 7.79216C14.0459 7.80493 14.0468 7.81791 14.0501 7.83035C14.0534 7.84279 14.0591 7.85445 14.0669 7.86467C14.0746 7.87488 14.0843 7.88346 14.0954 7.8899C14.1065 7.89633 14.1187 7.90051 14.1313 7.90219C14.144 7.90387 14.1569 7.90302 14.1692 7.89969C14.1815 7.89635 14.1931 7.8906 14.2032 7.88276C14.2134 7.87492 14.2219 7.86514 14.2283 7.85399C14.2346 7.84283 14.2388 7.83052 14.2405 7.81775C14.2421 7.80498 14.2413 7.79201 14.238 7.77957C14.2347 7.76713 14.229 7.75546 14.2212 7.74525C14.2134 7.73503 14.2037 7.72646 14.1926 7.72002C14.1816 7.71358 14.1694 7.7094 14.1567 7.70772C14.144 7.70604 14.1312 7.70689 14.1188 7.71023C14.1065 7.71356 14.0949 7.71931 14.0848 7.72716Z" fill="#000088"/>
    <path d="M13.9764 10.388L13.1978 9.50764L12.7576 9.15894L13.1034 9.60285L13.9764 10.388Z" fill="#000088"/>
    <path d="M14.3608 8.1584C14.337 8.16835 14.318 8.18744 14.3082 8.21147C14.2983 8.2355 14.2983 8.2625 14.3081 8.28653C14.318 8.31056 14.337 8.32966 14.3608 8.33961C14.3846 8.34957 14.4114 8.34957 14.4352 8.33962C14.459 8.32966 14.478 8.31057 14.4879 8.28654C14.4977 8.26251 14.4977 8.23551 14.4879 8.21148C14.478 8.18745 14.4591 8.16836 14.4352 8.1584C14.4114 8.14845 14.3846 8.14844 14.3608 8.1584Z" fill="#000088"/>
    <path d="M13.5731 10.7L13.047 9.6464L12.7115 9.19446L12.9316 9.7135L13.5731 10.7Z" fill="#000088"/>
    <path d="M14.5172 8.64614C14.4917 8.64953 14.4685 8.66303 14.4528 8.68367C14.4371 8.7043 14.4301 8.73038 14.4335 8.75617C14.4369 8.78196 14.4503 8.80534 14.4707 8.82118C14.4912 8.83701 14.517 8.844 14.5426 8.84061C14.5682 8.83721 14.5914 8.82371 14.6071 8.80308C14.6228 8.78244 14.6297 8.75636 14.6263 8.73057C14.623 8.70479 14.6096 8.6814 14.5891 8.66557C14.5687 8.64973 14.5428 8.64274 14.5172 8.64614Z" fill="#000088"/>
    <path d="M13.1039 10.8961L12.8662 9.741L12.658 9.2168L12.7376 9.77599L13.1039 10.8961Z" fill="#000088"/>
  </g>
  <defs>
    <clipPath id="clip0_40_4">
      <rect width="25.2" height="18" rx="2.42038" fill="white"/>
    </clipPath>
  </defs>
</svg>