<svg xmlns="http://www.w3.org/2000/svg" x="0px" y="0px" width="100" height="100" viewBox="0 0 64 64">
<ellipse cx="32" cy="61" opacity=".3" rx="22.5" ry="3"></ellipse><rect width="10" height="12" x="37.456" y="15.342" fill="#5e8700" transform="rotate(-134.999 42.457 21.342)"></rect><path fill="#98c900" d="M41.749,29.12l7.425,1.061c1.558,0.223,3.13-0.301,4.243-1.414l4.308-4.308	c1.215-1.215,0.433-3.295-1.281-3.41l-6.209-0.414L41.749,29.12z"></path><path fill="#98c900" d="M34.678,22.049l-1.061-7.425c-0.223-1.558,0.301-3.13,1.414-4.243l4.308-4.308	c1.215-1.215,3.295-0.433,3.41,1.281l0.414,6.209L34.678,22.049z"></path><path fill="#5e8700" d="M12.051,51.747c5.077,5.077,13.308,5.077,18.385,0l2.828-2.828l-7.683-10.511l-10.702-7.874	l-2.828,2.828C6.974,38.439,6.974,46.671,12.051,51.747z"></path><path fill="#98c900" d="M33.264,48.919l5.834-5.834c0.995-0.995,1.608-2.307,1.733-3.708l0.918-10.258l-7.071-7.071	l-10.137,0.836c-1.416,0.117-2.745,0.732-3.749,1.737l-5.912,5.912L33.264,48.919z"></path><rect width="26" height="5" x="11.425" y="36.873" fill="#ffce29" transform="rotate(-134.999 24.425 39.373)"></rect><path d="M52.557,22.557l-1.969,1.967c-0.445,0.445-1.074,0.654-1.697,0.565l-6.435-0.919 c-1.354-0.19-2.736,0.18-3.812,1.03c-1.075,0.852-1.753,2.108-1.876,3.475l-0.853,9.535c-0.063,0.7-0.369,1.357-0.867,1.854 L26.9,48.212c-1.548,1.546-3.606,2.38-5.791,2.342c-2.436-0.046-4.482,1.66-4.969,3.951c4.738,2.021,10.43,1.108,14.295-2.758 l2.828-2.828l5.834-5.834c0.995-0.995,1.608-2.307,1.734-3.708l0.918-10.258l7.425,1.061c1.558,0.223,3.13-0.301,4.243-1.414 l4.308-4.308c1.059-1.059,0.6-2.774-0.671-3.273C55.476,20.878,53.778,21.334,52.557,22.557z" opacity=".15"></path><path fill="#fff" d="M9.619,48.359c2.229-0.617,3.794-2.72,3.653-5.107c-0.14-2.361,0.642-4.682,2.315-6.355 l8.221-8.221c0.502-0.502,1.167-0.81,1.875-0.869l9.407-0.776c1.373-0.113,2.639-0.788,3.498-1.865 c0.858-1.077,1.235-2.461,1.041-3.825l-0.919-6.435c-0.089-0.623,0.121-1.252,0.566-1.697l1.968-1.968 c1.222-1.222,1.679-2.918,1.372-4.496C42.116,5.474,40.4,5.014,39.34,6.074l-4.308,4.308c-1.113,1.113-1.637,2.685-1.414,4.243 l1.061,7.425l-10.137,0.836c-1.416,0.117-2.745,0.732-3.75,1.737l-5.912,5.912l-2.828,2.828 C7.992,37.421,7.188,43.492,9.619,48.359z" opacity=".3"></path><line x1="21.115" x2="16.978" y1="29.222" y2="33.343" fill="none" stroke="#fff" stroke-linecap="round" stroke-linejoin="round" stroke-miterlimit="10" stroke-width="3"></line>
</svg>